<svg version="1.1" id="Layer_1" xmlns="http://www.w3.org/2000/svg" xmlns:xlink="http://www.w3.org/1999/xlink" x="0px" y="0px"
	 width="100%" viewBox="0 0 1264 843" enable-background="new 0 0 1264 843" xml:space="preserve">
<path fill="#000000" opacity="1.000000" stroke="none" 
	d="
M827.000000,844.000000 
	C551.365906,844.000000 276.231842,844.000000 1.048884,844.000000 
	C1.048884,563.065857 1.048884,282.131744 1.048884,1.098804 
	C422.217560,1.098804 843.435120,1.098804 1264.826416,1.098804 
	C1264.826416,281.999908 1264.826416,562.999939 1264.826416,844.000000 
	C1119.131470,844.000000 973.315735,844.000000 827.000000,844.000000 
M650.589478,406.942230 
	C650.742004,406.657959 650.894470,406.373718 651.082886,406.082550 
	C651.082886,406.082550 651.093750,406.047699 651.587402,405.940582 
	C651.741211,405.656494 651.895020,405.372375 652.078918,405.078217 
	C652.078918,405.078217 652.093445,405.050049 652.587036,404.941406 
	C652.741211,404.657104 652.895386,404.372803 653.078796,404.078217 
	C653.078796,404.078217 653.094543,404.051453 653.586609,403.943665 
	C653.740967,403.660614 653.895386,403.377594 654.091797,403.095032 
	C654.091797,403.095032 654.104858,403.055054 654.599182,402.956116 
	C654.750183,402.672028 654.901184,402.387939 655.104675,402.107483 
	C655.104675,402.107483 655.113220,402.055634 655.600220,401.959900 
	C655.920166,401.772339 656.070496,401.493378 656.126343,401.139099 
	C656.126343,401.139099 656.146790,401.065094 656.630371,400.994202 
	C656.953796,400.812622 657.095886,400.537415 657.174255,400.180634 
	C657.174255,400.180634 657.192322,400.063721 657.661987,399.997955 
	C657.976196,399.818512 658.108521,399.549622 658.194336,399.196167 
	C658.194336,399.196167 658.205933,399.061249 658.670654,398.995239 
	C658.980591,398.816315 659.110779,398.549683 659.197998,398.199463 
	C659.197998,398.199463 659.208984,398.062927 659.672424,397.997772 
	C659.981689,397.819763 660.111816,397.554047 660.203613,397.207001 
	C660.203613,397.207001 660.216980,397.066589 660.675720,397.004639 
	C660.982727,396.830109 661.112305,396.567902 661.222839,396.228821 
	C661.222839,396.228821 661.241333,396.071289 661.690247,396.015839 
	C661.992249,395.846344 662.118164,395.590302 662.245300,395.250153 
	C662.245300,395.250153 662.272034,395.074799 662.713440,395.021027 
	C663.010559,394.851379 663.129456,394.598083 663.331909,394.194672 
	C663.331909,394.194672 663.472473,393.963989 664.010864,393.714722 
	C665.349182,391.821136 666.687500,389.927521 668.000000,388.005707 
	C668.000000,388.005707 668.028259,388.025696 668.500061,387.850281 
	C668.682617,387.577087 668.865173,387.303894 669.475647,386.826843 
	C669.741699,386.640289 669.940247,386.398376 670.547974,385.925201 
	C670.714783,385.640930 670.881592,385.356659 671.041077,385.030701 
	C671.041077,385.030701 671.076355,385.054382 671.565125,384.944183 
	C671.726257,384.665375 671.887390,384.386566 672.110718,384.133331 
	C672.110718,384.133331 672.139160,384.072418 672.618591,384.005920 
	C672.941589,383.831207 673.087158,383.560974 673.302185,383.191956 
	C673.302185,383.191956 673.447021,382.992096 673.994141,382.751404 
	C675.000671,381.176147 676.007202,379.600891 677.004028,378.006042 
	C677.004028,378.006042 677.023071,378.013550 677.495422,377.859100 
	C677.793579,377.669800 677.974487,377.401428 678.016235,377.009430 
	C678.016235,377.009430 678.054565,377.042114 678.538086,376.903534 
	C678.709167,376.626404 678.880249,376.349274 679.032227,376.025238 
	C679.032227,376.025238 679.074402,376.053619 679.572693,375.910645 
	C679.720642,375.614471 679.868591,375.318298 680.495544,374.660278 
	C680.966553,374.023315 681.437500,373.386322 682.515808,372.607117 
	C683.011169,371.741913 683.506531,370.876709 684.002441,370.002441 
	C684.002441,370.002441 684.011658,370.002960 684.491028,369.859192 
	C684.672363,369.589111 684.853638,369.319000 685.013000,369.009033 
	C685.013000,369.009033 685.049988,369.036407 685.533508,368.875641 
	C685.694336,368.588623 685.855164,368.301575 686.000000,368.000000 
	C686.000000,368.000000 686.019409,368.012146 686.611694,367.699097 
	C695.858887,352.829163 713.053772,350.366882 726.409546,341.083130 
	C729.313293,350.716980 731.919128,359.362671 734.590820,368.226715 
	C738.518616,366.121460 741.761230,364.478180 744.891907,362.643860 
	C745.754883,362.138214 746.744568,361.139282 746.894775,360.236664 
	C748.364380,351.404449 749.662598,342.543762 751.021484,333.693024 
	C752.173889,326.186798 753.782410,319.467834 761.324829,314.844513 
	C766.694336,311.553131 770.481812,305.680878 775.400940,300.790283 
	C775.680481,300.631226 775.870605,300.398956 776.493408,299.975281 
	C776.675049,299.684479 776.856750,299.393707 777.164307,299.151703 
	C777.164307,299.151703 777.230896,299.034210 777.842957,298.793610 
	C779.237976,296.213837 780.632996,293.634064 782.052979,291.046478 
	C782.052979,291.046478 782.068359,291.025269 782.722900,290.798248 
	C784.723083,286.323944 787.028931,281.947968 788.520691,277.310120 
	C788.922302,276.061432 786.850403,274.017181 785.072388,272.211517 
	C783.371277,272.252136 781.670166,272.292725 779.300110,272.135834 
	C778.504456,272.408295 777.708740,272.680786 776.302551,273.096588 
	C775.884827,273.105499 775.467102,273.114410 774.504883,273.073853 
	C774.314697,273.363556 774.124512,273.653229 774.003845,273.980957 
	C774.003845,273.980957 773.949829,273.922363 773.241516,273.969055 
	C772.447876,274.282532 771.654236,274.596039 770.470947,275.079407 
	C770.470947,275.079407 770.046814,275.106567 769.487244,275.037781 
	C769.276367,275.328888 769.065552,275.619965 768.464050,276.064148 
	C768.464050,276.064148 768.045349,276.090851 767.483154,276.027710 
	C767.269226,276.318665 767.055298,276.609589 766.453552,277.041077 
	C766.453552,277.041077 766.041870,277.068085 765.475769,277.014038 
	C765.261047,277.306946 765.046326,277.599854 764.451904,278.034973 
	C764.451904,278.034973 764.047302,278.062042 763.476135,278.003632 
	C763.254333,278.296448 763.032593,278.589233 762.434998,279.007629 
	C762.434998,279.007629 762.040039,279.039337 761.474976,278.980133 
	C761.256714,279.268921 761.038452,279.557709 760.389160,280.208618 
	C759.942200,280.531372 759.495239,280.854095 758.513123,281.127167 
	C758.311157,281.405487 758.109192,281.683838 757.491028,282.103912 
	C757.491028,282.103912 757.051697,282.122040 756.497864,282.050110 
	C756.281128,282.334015 756.064392,282.617950 755.403442,283.244324 
	C754.951477,283.554230 754.499512,283.864136 753.509460,284.100983 
	C753.298828,284.377380 753.088196,284.653778 752.414062,285.238708 
	C751.958252,285.534729 751.502502,285.830750 750.496704,286.052856 
	C750.275574,286.331787 750.054382,286.610718 749.379517,287.194885 
	C748.935120,287.483521 748.490784,287.772156 747.504700,287.964722 
	C747.312439,288.250244 747.120178,288.535797 746.830566,288.836334 
	C746.830566,288.836334 746.839966,288.934326 746.368286,289.091278 
	C746.070557,289.299347 745.926819,289.584930 745.984314,289.949829 
	C745.984314,289.949829 745.931763,289.932068 745.270691,289.888214 
	C744.490906,290.506866 743.711121,291.125549 742.826416,291.822723 
	C742.826416,291.822723 742.875244,291.944336 742.401123,292.107544 
	C742.234619,292.387024 742.068115,292.666534 741.488281,293.209106 
	C741.233154,293.434570 741.074707,293.714722 740.308105,294.031311 
	C738.553955,295.689972 736.799744,297.348633 734.988037,298.997009 
	C734.988037,298.997009 734.997620,299.054718 734.549683,299.216614 
	C734.264099,299.410248 734.114441,299.679474 734.031860,300.034180 
	C734.031860,300.034180 734.047729,300.101959 733.352051,300.087799 
	C731.926392,301.403076 730.500732,302.718353 729.010498,304.029785 
	C729.010498,304.029785 729.034485,304.089783 728.429993,304.016968 
	C723.952393,300.310425 719.490295,302.361847 714.341125,304.123352 
	C713.884521,304.174438 713.427917,304.225494 712.131470,304.092010 
	C708.711243,304.673859 705.290955,305.255737 701.274109,306.057281 
	C700.858765,306.140686 700.443481,306.224060 699.284241,306.123627 
	C698.158813,306.383698 697.033386,306.643738 695.295410,307.098419 
	C694.872314,307.164520 694.449219,307.230621 693.236572,307.081879 
	C690.843201,307.760559 688.449829,308.439240 685.378174,309.179169 
	C684.927185,309.227142 684.476196,309.275116 683.217041,309.101624 
	C680.456055,309.711029 677.695129,310.320435 674.308960,311.087646 
	C673.882080,311.136658 673.455261,311.185669 672.331543,311.039673 
	C671.514404,311.308655 670.697327,311.577637 669.285400,312.071564 
	C668.866943,312.138794 668.448425,312.205994 667.338745,312.056396 
	C666.523438,312.322174 665.708069,312.587952 664.293030,313.058899 
	C663.872864,313.103760 663.452637,313.148590 662.406128,313.021576 
	C661.914429,313.322052 661.422791,313.622528 660.307129,314.086578 
	C659.882446,314.150818 659.457703,314.215057 658.281006,314.175995 
	C653.266235,316.030670 648.251526,317.885315 643.236816,319.739990 
	C643.314026,320.271606 643.391235,320.803223 643.468445,321.334839 
	C660.907349,324.413269 678.346191,327.491699 696.476501,330.692169 
	C686.186707,341.228485 676.422180,351.226959 666.480591,361.406708 
	C668.895020,362.997192 670.430420,364.008636 672.190735,365.168243 
	C662.858093,375.262878 653.831055,385.026917 644.345215,395.004272 
	C644.212585,395.302673 644.079956,395.601074 643.886658,395.874573 
	C643.886658,395.874573 643.859802,395.934357 643.376831,396.027985 
	C643.059143,396.215668 642.913879,396.493530 642.857361,396.851837 
	C642.857361,396.851837 642.842773,396.934814 642.361450,397.015198 
	C642.042175,397.200531 641.902161,397.476746 641.840759,397.838806 
	C641.840759,397.838806 641.830261,397.938904 641.353455,398.018951 
	C641.038025,398.204132 640.900574,398.478455 640.839111,398.837524 
	C640.839111,398.837524 640.829041,398.939178 640.355103,399.016083 
	C640.040527,399.198395 639.903137,399.470215 639.827515,399.821503 
	C639.827515,399.821503 639.811584,399.936157 639.339417,400.002777 
	C639.023926,400.183350 638.890503,400.453705 638.810425,400.808472 
	C638.810425,400.808472 638.798584,400.936859 638.333191,401.004730 
	C638.022217,401.184174 637.892578,401.451508 637.797119,401.799927 
	C637.797119,401.799927 637.783386,401.946716 637.329956,402.004028 
	C637.024841,402.176331 636.899719,402.435516 636.778992,402.776428 
	C636.778992,402.776428 636.762634,402.951233 636.315430,403.000946 
	C636.013977,403.170898 635.892273,403.426483 635.772522,403.770996 
	C635.772522,403.770996 635.757935,403.948151 635.312439,404.000641 
	C635.013306,404.170258 634.890320,404.424957 634.768860,404.763947 
	C634.768860,404.763947 634.753113,404.937805 634.302917,404.993988 
	C634.001221,405.167450 633.878601,405.425842 633.766785,405.770447 
	C633.766785,405.770447 633.760132,405.938568 633.310364,405.998474 
	C633.009705,406.171539 632.885132,406.429596 632.770935,406.767609 
	C632.770935,406.767609 632.758118,406.932953 632.300354,406.993561 
	C631.994446,407.172119 631.871399,407.435944 631.782227,407.793793 
	C631.782227,407.793793 631.783752,407.942932 631.322510,408.016083 
	C631.016724,408.198181 630.890381,408.465179 630.814453,408.817413 
	C630.814453,408.817413 630.808533,408.946228 630.335022,409.014679 
	C630.019836,409.199341 629.889709,409.472198 629.832764,409.838043 
	C629.832764,409.838043 629.831970,409.950043 629.351929,410.028839 
	C629.034485,410.217529 628.900208,410.494904 628.859680,410.863342 
	C628.859680,410.863342 628.857422,410.952698 628.371277,411.035034 
	C628.049988,411.224670 627.910645,411.504761 627.874084,411.874512 
	C627.874084,411.874512 627.868958,411.953522 627.379517,412.035492 
	C627.055847,412.225128 626.914001,412.506409 626.877930,412.878265 
	C626.877930,412.878265 626.872681,412.954315 626.378235,413.039703 
	C626.237366,413.325165 626.096436,413.610657 625.894165,413.899597 
	C625.894165,413.899597 625.896667,413.960999 625.403320,414.059845 
	C625.256409,414.344574 625.109436,414.629333 624.914917,414.915680 
	C624.914917,414.915680 624.911011,414.963135 624.412292,415.059570 
	C624.262695,415.346069 624.113098,415.632538 623.918823,415.924500 
	C623.918823,415.924500 623.917542,415.969513 623.437866,416.092255 
	C623.127991,416.283691 622.974182,416.561493 622.922546,416.928406 
	C622.922546,416.928406 622.925720,416.982269 622.460693,417.125946 
	C622.162170,417.318756 622.010986,417.592834 621.943848,417.952820 
	C621.943848,417.952820 621.952515,418.015686 621.340820,418.262787 
	C612.876831,425.514343 604.412842,432.765930 595.448120,439.991516 
	C595.290588,440.263489 595.133057,440.535461 594.826843,440.825653 
	C594.826843,440.825653 594.839172,440.974945 594.365051,441.077454 
	C594.058777,441.271637 593.922668,441.549255 593.904907,441.923676 
	C593.904907,441.923676 593.916870,441.975891 593.464478,442.146820 
	C593.182068,442.340088 593.013550,442.605652 592.460815,443.236420 
	C591.962097,443.500763 591.463379,443.765076 590.444885,444.006744 
	C590.283386,444.291229 590.121948,444.575714 589.874023,444.887146 
	C589.874023,444.887146 589.897034,444.974762 589.421326,445.096985 
	C589.122437,445.282410 588.953613,445.549835 588.510376,446.230957 
	C588.353577,446.539429 588.196716,446.847900 587.401672,447.415466 
	C582.826782,450.535004 578.227905,453.619965 573.681335,456.780182 
	C556.378906,468.806671 538.100891,478.911102 517.938354,485.370697 
	C512.711609,487.045197 507.558990,488.951263 502.372314,490.751007 
	C506.186676,491.176544 509.789368,490.938293 513.352539,490.425568 
	C528.818115,488.200134 543.888611,484.359375 557.745056,477.057098 
	C568.780273,471.241638 579.322388,464.490387 590.131409,458.103394 
	C590.131409,458.103394 590.100464,458.040314 590.712585,457.948761 
	C591.444458,457.284607 592.176392,456.620422 592.966309,455.988800 
	C592.966309,455.988800 593.002075,455.932770 593.479065,455.825012 
	C593.785828,455.646698 593.956421,455.380951 594.031006,455.022858 
	C594.031006,455.022858 594.020142,454.983887 594.689514,455.009979 
	C595.462708,454.357178 596.235901,453.704376 597.047974,453.042572 
	C597.047974,453.042572 597.041382,453.003204 597.654724,452.883911 
	C598.451721,452.306854 599.248657,451.729767 600.121460,451.107849 
	C600.121460,451.107849 600.079590,451.030273 600.520996,450.835236 
	C600.796875,450.628632 600.946472,450.353424 601.020325,450.000732 
	C601.020325,450.000732 600.992676,449.957458 601.684387,450.007660 
	C602.778198,449.007294 603.872070,448.006897 605.022034,447.001862 
	C605.022034,447.001862 604.999878,446.950134 605.609985,446.843689 
	C606.419495,446.313416 607.229004,445.783142 608.165039,445.162872 
	C608.165039,445.162872 608.086914,445.028625 608.568665,444.903564 
	C608.869080,444.718872 609.052002,444.453278 609.618286,443.768036 
	C610.449646,443.214661 611.280945,442.661285 612.603943,441.970581 
	C612.750183,441.677612 612.896423,441.384674 613.091248,441.081238 
	C613.091248,441.081238 613.084839,441.031982 613.555420,440.887543 
	C613.853088,440.695190 614.017029,440.422485 614.040039,440.040527 
	C614.040039,440.040527 614.069702,440.038513 614.510132,439.835602 
	C614.785095,439.631165 614.946655,439.359314 615.018494,439.014771 
	C615.018494,439.014771 615.016846,438.990570 615.614014,438.879883 
	C616.409180,438.379730 617.204285,437.879578 618.188782,437.258362 
	C618.188782,437.258362 618.160400,437.035370 618.636841,436.937988 
	C618.946350,436.745758 619.084106,436.468353 619.105896,436.087463 
	C619.105896,436.087463 619.088318,436.031525 619.561951,435.896057 
	C619.862976,435.704865 620.024780,435.431366 620.049377,435.049622 
	C620.049377,435.049622 620.074280,435.041809 620.538635,434.867981 
	C620.826782,434.672577 621.008850,434.404999 621.651306,433.704559 
	C629.109741,426.889557 636.568176,420.074585 644.171692,413.196136 
	C644.171692,413.196136 644.126953,413.044220 644.616272,412.957794 
	C644.938843,412.767212 645.081543,412.485504 645.113831,412.113800 
	C645.113831,412.113800 645.118835,412.044434 645.612305,411.958374 
	C645.756592,411.674591 645.900818,411.390778 646.108459,411.107025 
	C646.108459,411.107025 646.109924,411.043701 646.603821,410.949463 
	C646.750610,410.664917 646.897400,410.380371 647.096252,410.094940 
	C647.096252,410.094940 647.099243,410.043030 647.593628,409.943970 
	C647.743042,409.659180 647.892456,409.374390 648.088379,409.088776 
	C648.088379,409.088776 648.094788,409.042694 648.590088,408.944794 
	C648.741211,408.660339 648.892273,408.375854 649.089844,408.090332 
	C649.089844,408.090332 649.096375,408.044220 649.590759,407.943481 
	C649.742004,407.659119 649.893250,407.374756 650.087463,407.087585 
	C650.087463,407.087585 650.095215,407.045227 650.589478,406.942230 
M675.342712,480.470093 
	C675.495117,478.961121 675.647522,477.452179 675.896484,475.017761 
	C675.861694,468.001129 675.826904,460.984497 675.541504,453.174683 
	C675.396118,447.746796 675.250732,442.318909 675.692322,436.326447 
	C675.786621,425.539215 675.914917,414.751892 675.891357,403.964905 
	C675.889954,403.315247 674.678772,402.668182 673.308594,401.990082 
	C672.032593,402.934235 670.618164,403.738678 669.501953,404.844177 
	C658.658936,415.583374 647.865845,426.372986 636.558228,437.203064 
	C636.471252,437.498047 636.384277,437.792999 636.286133,438.928253 
	C636.331543,440.884003 636.376892,442.839752 636.171936,445.685669 
	C636.228638,447.830841 636.285339,449.976013 636.260925,453.032166 
	C636.358154,457.347473 636.455383,461.662811 636.347656,466.815308 
	C636.380371,468.248535 636.413147,469.681732 636.250122,471.995209 
	C635.845093,476.432404 635.148621,480.865540 635.086243,485.307556 
	C634.832764,503.335144 628.554504,518.502625 613.701599,530.251648 
	C615.116699,530.562561 615.900940,530.941895 616.636780,530.863892 
	C622.711365,530.220459 628.792053,529.602051 634.842651,528.770508 
	C660.524658,525.240906 672.846008,505.465485 674.843506,483.171448 
	C674.794006,482.405029 674.744507,481.638641 675.342712,480.470093 
M474.186432,446.680237 
	C474.227295,449.197510 474.268188,451.714752 474.106689,454.580078 
	C474.195160,454.952728 474.283661,455.325378 473.440186,455.972473 
	C473.285919,465.056213 473.122284,474.139862 473.021362,483.224182 
	C473.018280,483.502777 473.666809,483.788635 474.142212,484.899689 
	C473.753326,487.815918 475.549683,488.169189 477.763306,487.928558 
	C487.015350,486.922974 496.372925,486.457550 505.485138,484.714020 
	C514.959778,482.901154 514.726379,482.354462 514.927551,472.493805 
	C515.126404,462.748322 515.612427,453.008484 515.996765,443.267090 
	C516.103882,440.552155 515.536926,438.561035 511.252930,439.082520 
	C507.764618,439.584137 504.260254,439.994781 500.791107,440.605316 
	C492.137665,442.128296 483.500183,443.742157 474.492676,445.223175 
	C474.195587,445.366241 474.137909,445.575500 474.186432,446.680237 
M631.856201,447.503662 
	C631.856201,447.503662 631.798462,447.045013 631.861633,446.374084 
	C631.835999,445.926178 631.810425,445.478241 631.879333,444.353455 
	C631.577698,443.671783 631.276062,442.990112 630.974487,442.308441 
	C629.991943,443.199371 629.009338,444.090302 627.412415,445.313263 
	C626.661865,445.623352 625.808777,445.795288 625.176208,446.264435 
	C616.384460,452.785065 607.622925,459.346405 598.265808,466.265747 
	C596.111877,467.715485 594.093689,469.444031 591.781982,470.569733 
	C576.757141,477.885925 562.098022,486.056580 545.811462,490.475159 
	C540.288940,491.973511 534.901672,494.179199 529.294617,495.106598 
	C521.698486,496.363037 513.961365,497.114471 506.264343,497.319244 
	C497.941742,497.540680 489.563629,497.239716 481.270569,496.491852 
	C475.092438,495.934662 469.011200,494.303314 461.882019,492.961151 
	C463.952728,494.467712 465.192535,495.459503 466.517639,496.319885 
	C479.132843,504.510620 492.649109,510.678101 506.932892,515.478577 
	C536.342285,525.362305 566.470459,530.537720 597.470459,530.893005 
	C608.719177,531.021912 621.156372,522.816711 625.802246,511.636536 
	C631.635559,497.598419 632.655273,482.928558 631.786255,467.051514 
	C631.783936,460.687500 631.781616,454.323517 631.856201,447.503662 
M529.646606,474.910767 
	C537.518066,471.026031 545.586304,467.486023 553.195496,463.141876 
	C558.765137,459.962128 563.731628,455.725769 569.691650,451.498077 
	C569.691650,433.078766 569.691650,414.659424 569.691650,395.934998 
	C568.006165,396.065186 566.541382,396.057983 565.121521,396.307220 
	C554.474243,398.176025 543.866211,400.297333 533.179810,401.899231 
	C528.934998,402.535522 526.773132,403.671143 526.835449,408.542236 
	C527.080139,427.675873 526.940857,446.814331 526.953979,465.951019 
	C526.955933,468.779633 526.979065,471.609650 527.117065,474.432953 
	C527.125183,474.599274 528.251648,474.710907 529.646606,474.910767 
M714.867310,441.835052 
	C714.867310,414.467957 714.867310,387.100830 714.867310,358.666840 
	C710.679504,362.835632 707.358948,366.162994 704.014404,369.465942 
	C696.762878,376.627350 689.474548,383.751801 682.278320,390.968231 
	C681.562805,391.685699 681.378357,392.932709 680.532654,394.170044 
	C680.262085,394.405945 680.176147,394.696442 680.244080,395.895355 
	C680.288269,397.602570 680.332458,399.309784 680.183960,401.931152 
	C679.797729,426.377289 679.383301,450.823059 679.038208,475.269775 
	C678.885010,486.122070 676.527466,496.541504 671.698486,506.143463 
	C668.790466,511.925903 664.399475,516.962585 660.316772,522.850952 
	C676.740417,518.338013 690.721741,511.056824 700.589600,497.438080 
	C712.429871,481.097107 716.391724,462.615143 714.867310,441.835052 
M582.086304,421.814911 
	C582.086304,428.614410 582.086304,435.413879 582.086304,443.130249 
	C585.532776,440.528931 588.511597,438.419006 591.336487,436.119965 
	C597.409485,431.177368 603.576721,426.329041 609.376099,421.078491 
	C614.300171,416.620514 618.906616,411.781067 623.330017,406.821747 
	C624.476685,405.536133 624.831482,403.164917 624.814270,401.299103 
	C624.778015,397.362640 623.932068,393.425262 623.996887,389.497833 
	C624.152649,380.067291 624.727234,370.644073 624.931519,361.213562 
	C624.977051,359.115417 624.193054,356.999268 623.830017,355.095856 
	C615.196167,356.459656 607.346802,357.597076 599.538696,358.968842 
	C594.329773,359.884003 589.179565,361.132935 583.135864,362.108643 
	C582.756836,363.037964 582.046326,363.967743 582.047607,364.896545 
	C582.074097,383.557495 582.182495,402.218292 582.086304,421.814911 
z"/>
<path fill="#153260" opacity="1.000000" stroke="none" 
	d="
M631.680908,467.982208 
	C632.655273,482.928558 631.635559,497.598419 625.802246,511.636536 
	C621.156372,522.816711 608.719177,531.021912 597.470459,530.893005 
	C566.470459,530.537720 536.342285,525.362305 506.932892,515.478577 
	C492.649109,510.678101 479.132843,504.510620 466.517639,496.319885 
	C465.192535,495.459503 463.952728,494.467712 461.882019,492.961151 
	C469.011200,494.303314 475.092438,495.934662 481.270569,496.491852 
	C489.563629,497.239716 497.941742,497.540680 506.264343,497.319244 
	C513.961365,497.114471 521.698486,496.363037 529.294617,495.106598 
	C534.901672,494.179199 540.288940,491.973511 545.811462,490.475159 
	C562.098022,486.056580 576.757141,477.885925 591.781982,470.569733 
	C594.093689,469.444031 596.111877,467.715485 598.720703,466.307251 
	C597.543701,468.065552 595.496277,469.550812 594.379578,471.554749 
	C592.792236,474.403290 590.785767,477.683105 590.921936,480.689728 
	C591.211548,487.085052 594.438843,488.860291 602.675476,490.019623 
	C609.510803,490.981689 616.325562,492.352905 622.995239,494.123596 
	C626.647644,495.093262 628.593811,494.447083 628.917297,490.731781 
	C629.420044,484.956787 629.549988,479.149109 630.066406,473.375702 
	C630.230164,471.544373 631.122131,469.778198 631.680908,467.982208 
z"/>
<path fill="#14518C" opacity="1.000000" stroke="none" 
	d="
M681.908508,372.749359 
	C681.437500,373.386322 680.966553,374.023315 680.075378,374.990051 
	C679.430298,375.539673 679.236694,375.784271 679.074402,376.053619 
	C679.074402,376.053619 679.032227,376.025238 678.849121,376.181854 
	C678.421204,376.537354 678.217346,376.771912 678.054565,377.042114 
	C678.054565,377.042114 678.016235,377.009430 677.826782,377.156250 
	C677.385925,377.499512 677.181152,377.736328 677.023071,378.013550 
	C677.023071,378.013550 677.004028,378.006042 676.666992,378.083405 
	C675.369019,379.771210 674.408020,381.381653 673.447021,382.992096 
	C673.447021,382.992096 673.302185,383.191956 673.015869,383.329407 
	C672.513733,383.650146 672.316956,383.851990 672.139160,384.072418 
	C672.139160,384.072418 672.110718,384.133331 671.898682,384.258728 
	C671.452087,384.579193 671.248657,384.802643 671.076355,385.054382 
	C671.076355,385.054382 671.041077,385.030701 670.853333,385.195038 
	C670.420105,385.568604 670.221985,385.815826 670.071289,386.101074 
	C669.940247,386.398376 669.741699,386.640289 669.059692,387.059204 
	C668.392578,387.497711 668.187439,387.742432 668.028259,388.025696 
	C668.028259,388.025696 668.000000,388.005707 667.672852,388.089203 
	C666.054688,390.103119 664.763611,392.033569 663.472473,393.963989 
	C663.472473,393.963989 663.331909,394.194672 663.059021,394.354675 
	C662.601929,394.689575 662.430603,394.876312 662.272034,395.074799 
	C662.272034,395.074799 662.245300,395.250153 662.009094,395.376404 
	C661.581360,395.678741 661.404175,395.868317 661.241333,396.071289 
	C661.241333,396.071289 661.222839,396.228821 660.991699,396.354095 
	C660.563843,396.660736 660.382629,396.856476 660.216980,397.066589 
	C660.216980,397.066589 660.203613,397.207001 659.979980,397.336700 
	C659.558533,397.651184 659.376099,397.850037 659.208984,398.062927 
	C659.208984,398.062927 659.197998,398.199463 658.975891,398.330688 
	C658.555725,398.647552 658.373108,398.847321 658.205933,399.061249 
	C658.205933,399.061249 658.194336,399.196167 657.971680,399.328705 
	C657.548096,399.647858 657.362549,399.848694 657.192322,400.063721 
	C657.192322,400.063721 657.174255,400.180634 656.953125,400.313354 
	C656.519653,400.636108 656.324585,400.842438 656.146790,401.065094 
	C656.146790,401.065094 656.126343,401.139099 655.916687,401.270477 
	C655.485229,401.598083 655.287292,401.816010 655.113220,402.055634 
	C655.113220,402.055634 655.104675,402.107483 654.905151,402.248657 
	C654.482727,402.591095 654.282471,402.812836 654.104858,403.055054 
	C654.104858,403.055054 654.091797,403.095032 653.894043,403.236450 
	C653.470032,403.579407 653.269409,403.803925 653.094543,404.051453 
	C653.094543,404.051453 653.078796,404.078217 652.887268,404.225708 
	C652.469727,404.576324 652.268982,404.801941 652.093445,405.050049 
	C652.093445,405.050049 652.078918,405.078217 651.887329,405.225403 
	C651.470154,405.575409 651.269470,405.800446 651.093750,406.047699 
	C651.093750,406.047699 651.082886,406.082550 650.889404,406.228088 
	C650.471497,406.575867 650.271240,406.799744 650.095215,407.045227 
	C650.095215,407.045227 650.087463,407.087585 649.891418,407.231201 
	C649.471924,407.576691 649.272278,407.799835 649.096375,408.044220 
	C649.096375,408.044220 649.089844,408.090332 648.892090,408.232788 
	C648.470520,408.576172 648.270630,408.798676 648.094788,409.042694 
	C648.094788,409.042694 648.088379,409.088776 647.891357,409.231262 
	C647.472046,409.575653 647.273682,409.798737 647.099243,410.043030 
	C647.099243,410.043030 647.096252,410.094940 646.898804,410.237610 
	C646.482056,410.581665 646.284912,410.802795 646.109924,411.043701 
	C646.109924,411.043701 646.108459,411.107025 645.907959,411.248779 
	C645.490906,411.590240 645.294739,411.808228 645.118835,412.044434 
	C645.118835,412.044434 645.113831,412.113800 644.911194,412.253571 
	C644.493652,412.591492 644.299805,412.808472 644.126953,413.044220 
	C644.126953,413.044220 644.171692,413.196136 643.742737,413.189941 
	C640.717773,415.117615 638.124329,417.054901 635.525269,418.984619 
	C630.898926,422.419586 626.381653,426.023987 621.552551,429.145782 
	C620.498169,429.827423 618.325134,428.778625 616.667297,428.526764 
	C617.199219,427.089294 617.591919,425.579285 618.294861,424.230988 
	C619.404724,422.102203 620.722656,420.081909 621.952515,418.015686 
	C621.952515,418.015686 621.943848,417.952820 622.159668,417.821594 
	C622.605591,417.490540 622.788940,417.254517 622.925720,416.982269 
	C622.925720,416.982269 622.922546,416.928406 623.132690,416.795349 
	C623.572632,416.463135 623.764221,416.232178 623.917542,415.969513 
	C623.917542,415.969513 623.918823,415.924500 624.117432,415.781525 
	C624.538940,415.435059 624.737244,415.209930 624.911011,414.963135 
	C624.911011,414.963135 624.914917,414.915680 625.112122,414.773926 
	C625.529663,414.429901 625.725403,414.206177 625.896667,413.960999 
	C625.896667,413.960999 625.894165,413.899597 626.091553,413.754517 
	C626.502136,413.407684 626.696716,413.189301 626.872681,412.954315 
	C626.872681,412.954315 626.877930,412.878265 627.082581,412.738525 
	C627.500977,412.401611 627.694885,412.186493 627.868958,411.953522 
	C627.868958,411.953522 627.874084,411.874512 628.078369,411.735046 
	C628.493713,411.398712 628.685303,411.184387 628.857422,410.952698 
	C628.857422,410.952698 628.859680,410.863342 629.064758,410.723267 
	C629.474731,410.387634 629.662109,410.176575 629.831970,409.950043 
	C629.831970,409.950043 629.832764,409.838043 630.044189,409.698975 
	C630.454956,409.368927 630.639282,409.164337 630.808533,408.946228 
	C630.808533,408.946228 630.814453,408.817413 631.032104,408.684204 
	C631.444885,408.363373 631.622925,408.160675 631.783752,407.942932 
	C631.783752,407.942932 631.782227,407.793793 632.003174,407.655762 
	C632.412964,407.332703 632.590942,407.137756 632.758118,406.932953 
	C632.758118,406.932953 632.770935,406.767609 633.002991,406.643005 
	C633.426392,406.339935 633.601440,406.146637 633.760132,405.938568 
	C633.760132,405.938568 633.766785,405.770447 633.997375,405.641296 
	C634.416443,405.332977 634.591492,405.141541 634.753113,404.937805 
	C634.753113,404.937805 634.768860,404.763947 635.004395,404.640961 
	C635.429810,404.343750 635.602478,404.153809 635.757935,403.948151 
	C635.757935,403.948151 635.772522,403.770996 636.009521,403.646301 
	C636.436523,403.347717 636.608582,403.157593 636.762634,402.951233 
	C636.762634,402.951233 636.778992,402.776428 637.017700,402.652985 
	C637.450867,402.352203 637.626526,402.157928 637.783386,401.946716 
	C637.783386,401.946716 637.797119,401.799927 638.024414,401.669495 
	C638.450134,401.352997 638.632446,401.152252 638.798584,400.936859 
	C638.798584,400.936859 638.810425,400.808472 639.030640,400.675171 
	C639.452942,400.354004 639.639832,400.152100 639.811584,399.936157 
	C639.811584,399.936157 639.827515,399.821503 640.045288,399.690186 
	C640.469849,399.368774 640.658447,399.162231 640.829041,398.939178 
	C640.829041,398.939178 640.839111,398.837524 641.050537,398.701294 
	C641.468689,398.371979 641.658081,398.163239 641.830261,397.938904 
	C641.830261,397.938904 641.840759,397.838806 642.052856,397.701263 
	C642.474854,397.369965 642.667419,397.160309 642.842773,396.934814 
	C642.842773,396.934814 642.857361,396.851837 643.066162,396.715820 
	C643.490417,396.383331 643.685364,396.168182 643.859802,395.934357 
	C643.859802,395.934357 643.886658,395.874573 644.080811,395.716705 
	C644.499573,395.336121 644.675964,395.080170 644.804016,394.790955 
	C653.831055,385.026917 662.858093,375.262878 672.190735,365.168243 
	C670.430420,364.008636 668.895020,362.997192 666.480591,361.406708 
	C676.422180,351.226959 686.186707,341.228485 696.476501,330.692169 
	C678.346191,327.491699 660.907349,324.413269 643.468445,321.334839 
	C643.391235,320.803223 643.314026,320.271606 643.236816,319.739990 
	C648.251526,317.885315 653.266235,316.030670 658.499756,314.521118 
	C656.233154,316.234802 653.747803,317.603333 651.262390,318.971863 
	C653.050049,320.676239 654.680786,321.273193 656.364319,321.559998 
	C670.735779,324.007935 685.100037,326.508606 699.507812,328.724365 
	C702.726685,329.219391 706.259888,329.246582 709.381104,328.446503 
	C714.624207,327.102539 719.756897,325.165375 724.745178,323.031677 
	C730.836121,320.426331 737.742920,318.460632 742.407227,314.165924 
	C746.567932,310.334839 751.106079,308.965027 755.825012,307.116302 
	C760.079529,305.449524 764.293457,303.676453 768.571838,302.074463 
	C769.973877,301.549438 771.521729,301.413635 772.829468,301.374603 
	C768.117432,305.777893 763.790466,310.176208 758.977295,313.955109 
	C754.632019,317.366608 750.738525,321.021210 750.095703,326.652008 
	C749.044739,335.858368 742.432922,338.064758 733.043030,339.132782 
	C728.518372,339.647430 724.074646,341.042572 719.657898,342.268311 
	C717.278809,342.928558 715.094299,344.284729 712.717896,344.961212 
	C704.015930,347.438477 696.719788,352.174805 690.923706,358.980042 
	C688.750244,361.531921 687.623413,364.975250 686.019409,368.012146 
	C686.019409,368.012146 686.000000,368.000000 685.818237,368.148834 
	C685.398132,368.509888 685.202637,368.756134 685.049988,369.036407 
	C685.049988,369.036407 685.013000,369.009033 684.824036,369.154114 
	C684.384644,369.496002 684.176819,369.730591 684.011658,370.002960 
	C684.011658,370.002960 684.002441,370.002441 683.701660,370.098511 
	C682.903381,371.046173 682.405945,371.897766 681.908508,372.749359 
z"/>
<path fill="#30AAAB" opacity="1.000000" stroke="none" 
	d="
M584.003052,362.232513 
	C589.179565,361.132935 594.329773,359.884003 599.538696,358.968842 
	C607.346802,357.597076 615.196167,356.459656 623.830017,355.095856 
	C624.193054,356.999268 624.977051,359.115417 624.931519,361.213562 
	C624.727234,370.644073 624.152649,380.067291 623.996887,389.497833 
	C623.932068,393.425262 624.778015,397.362640 624.814270,401.299103 
	C624.831482,403.164917 624.476685,405.536133 623.330017,406.821747 
	C618.906616,411.781067 614.300171,416.620514 609.376099,421.078491 
	C603.576721,426.329041 597.409485,431.177368 591.336487,436.119965 
	C588.511597,438.419006 585.532776,440.528931 582.086304,443.130249 
	C582.086304,435.413879 582.086304,428.614410 582.284668,420.965393 
	C582.654785,403.592316 582.784363,387.068085 583.039429,370.545807 
	C583.082336,367.770416 583.668152,365.003418 584.003052,362.232513 
z"/>
<path fill="#105899" opacity="1.000000" stroke="none" 
	d="
M773.002869,301.099884 
	C771.521729,301.413635 769.973877,301.549438 768.571838,302.074463 
	C764.293457,303.676453 760.079529,305.449524 755.825012,307.116302 
	C751.106079,308.965027 746.567932,310.334839 742.407227,314.165924 
	C737.742920,318.460632 730.836121,320.426331 724.745178,323.031677 
	C719.756897,325.165375 714.624207,327.102539 709.381104,328.446503 
	C706.259888,329.246582 702.726685,329.219391 699.507812,328.724365 
	C685.100037,326.508606 670.735779,324.007935 656.364319,321.559998 
	C654.680786,321.273193 653.050049,320.676239 651.262390,318.971863 
	C653.747803,317.603333 656.233154,316.234802 658.875732,314.572784 
	C659.457703,314.215057 659.882446,314.150818 660.806519,314.153656 
	C661.881409,313.878296 662.456970,313.535858 663.032471,313.193451 
	C663.452637,313.148590 663.872864,313.103760 664.810852,313.148682 
	C666.229126,312.916718 667.129517,312.594971 668.029968,312.273193 
	C668.448425,312.205994 668.866943,312.138794 669.804443,312.149780 
	C671.225098,311.896881 672.126709,311.565796 673.028381,311.234680 
	C673.455261,311.185669 673.882080,311.136658 674.916687,311.220642 
	C678.358032,310.676788 681.191589,309.999939 684.025208,309.323090 
	C684.476196,309.275116 684.927185,309.227142 686.003845,309.319397 
	C689.095032,308.738678 691.560608,308.017700 694.026123,307.296753 
	C694.449219,307.230621 694.872314,307.164520 695.851685,307.200073 
	C697.614685,306.970276 698.821411,306.638855 700.028137,306.307434 
	C700.443481,306.224060 700.858765,306.140686 701.873413,306.169678 
	C705.972290,305.613586 709.471802,304.945068 712.971313,304.276550 
	C713.427917,304.225494 713.884521,304.174438 714.969238,304.267914 
	C717.776184,304.412476 719.955078,304.412476 722.220093,304.412476 
	C722.220093,306.565796 722.220093,308.230286 722.220093,311.361145 
	C725.117920,308.268982 727.076172,306.179382 729.034485,304.089783 
	C729.034485,304.089783 729.010498,304.029785 729.391968,304.005432 
	C731.198242,302.688049 732.622986,301.395020 734.047729,300.101959 
	C734.047729,300.101959 734.031860,300.034180 734.239868,299.890869 
	C734.668030,299.545898 734.851257,299.314941 734.997620,299.054718 
	C734.997620,299.054718 734.988037,298.997009 735.371277,298.981171 
	C737.507324,297.326752 739.260132,295.688171 741.012939,294.049561 
	C741.074707,293.714722 741.233154,293.434570 741.893677,292.949585 
	C742.539062,292.478485 742.731140,292.229919 742.875244,291.944336 
	C742.875244,291.944336 742.826416,291.822723 743.211426,291.782928 
	C744.374939,291.139435 745.153320,290.535767 745.931763,289.932068 
	C745.931763,289.932068 745.984314,289.949829 746.141479,289.808960 
	C746.517700,289.452026 746.698120,289.207428 746.839966,288.934326 
	C746.839966,288.934326 746.830566,288.836334 747.061401,288.696045 
	C747.542725,288.389282 747.794067,288.224274 748.046387,288.060760 
	C748.490784,287.772156 748.935120,287.483521 749.820984,286.936646 
	C750.525452,286.496704 750.786865,286.312836 751.046753,286.126770 
	C751.502502,285.830750 751.958252,285.534729 752.855408,284.982971 
	C753.552673,284.550507 753.802917,284.366119 754.047546,284.174072 
	C754.499512,283.864136 754.951477,283.554230 755.837158,282.961548 
	C756.532593,282.495117 756.792847,282.309570 757.051697,282.122040 
	C757.051697,282.122040 757.491028,282.103912 757.904419,281.925537 
	C758.570007,281.568176 758.813477,281.378052 759.048279,281.176849 
	C759.495239,280.854095 759.942200,280.531372 760.815186,279.905701 
	C761.505127,279.411743 761.771423,279.223938 762.040039,279.039337 
	C762.040039,279.039337 762.434998,279.007629 762.835449,278.818848 
	C763.501160,278.433258 763.771606,278.243927 764.047302,278.062042 
	C764.047302,278.062042 764.451904,278.034973 764.849854,277.836670 
	C765.507446,277.441284 765.772156,277.251221 766.041870,277.068085 
	C766.041870,277.068085 766.453552,277.041077 766.856384,276.849152 
	C767.518677,276.464874 767.780701,276.276093 768.045349,276.090851 
	C768.045349,276.090851 768.464050,276.064148 768.866333,275.866821 
	C769.525574,275.478424 769.784973,275.290802 770.046814,275.106567 
	C770.046814,275.106567 770.470947,275.079407 771.003296,274.968384 
	C772.340332,274.545685 773.145081,274.234009 773.949829,273.922363 
	C773.949829,273.922363 774.003845,273.980957 774.164429,273.838928 
	C774.570374,273.510681 774.811829,273.319489 775.049377,273.123322 
	C775.467102,273.114410 775.884827,273.105499 776.927185,273.022980 
	C778.357544,272.744019 779.163330,272.538666 779.969055,272.333313 
	C781.670166,272.292725 783.371277,272.252136 785.578064,272.617554 
	C785.768921,276.075836 785.728638,279.189545 785.062866,282.163208 
	C784.385437,285.189026 783.092041,288.076965 782.068359,291.025269 
	C782.068359,291.025269 782.052979,291.046478 781.710876,291.129700 
	C779.989441,293.820038 778.610168,296.427124 777.230896,299.034210 
	C777.230896,299.034210 777.164307,299.151703 776.899780,299.265594 
	C776.369507,299.576202 776.148193,299.814209 775.971252,300.093536 
	C775.870605,300.398956 775.680481,300.631226 774.858032,300.874695 
	C773.877686,301.006042 773.440247,301.052948 773.002869,301.099884 
z"/>
<path fill="#14518C" opacity="1.000000" stroke="none" 
	d="
M680.376709,401.016998 
	C680.332458,399.309784 680.288269,397.602570 680.404968,395.305725 
	C680.749756,394.483093 680.876953,394.222382 680.947510,393.933990 
	C681.378357,392.932709 681.562805,391.685699 682.278320,390.968231 
	C689.474548,383.751801 696.762878,376.627350 704.014404,369.465942 
	C707.358948,366.162994 710.679504,362.835632 714.867310,358.666840 
	C714.867310,387.100830 714.867310,414.467957 714.668701,441.937225 
	C714.302429,432.696228 714.134766,423.353027 713.990662,413.540710 
	C714.014160,397.686798 714.014160,382.302063 714.014160,366.917297 
	C713.678650,366.916962 713.343140,366.916626 713.007629,366.916321 
	C713.007629,382.613159 713.007629,398.309967 713.000061,414.474854 
	C712.675476,421.647583 712.358459,428.352325 711.661865,435.058167 
	C710.189331,435.387177 708.825073,435.407410 708.047607,436.092987 
	C703.064331,440.487335 697.089478,439.307953 691.550903,438.628143 
	C683.130615,437.594604 683.179260,437.198181 681.166748,444.187012 
	C681.149048,436.272461 681.215332,428.801819 681.081360,421.334778 
	C680.959900,414.560150 680.620239,407.789429 680.376709,401.016998 
z"/>
<path fill="#48B7D4" opacity="1.000000" stroke="none" 
	d="
M528.857666,474.848022 
	C528.251648,474.710907 527.125183,474.599274 527.117065,474.432953 
	C526.979065,471.609650 526.955933,468.779633 526.953979,465.951019 
	C526.940857,446.814331 527.080139,427.675873 526.835449,408.542236 
	C526.773132,403.671143 528.934998,402.535522 533.179810,401.899231 
	C543.866211,400.297333 554.474243,398.176025 565.121521,396.307220 
	C566.541382,396.057983 568.006165,396.065186 569.691650,395.934998 
	C569.691650,414.659424 569.691650,433.078766 569.355957,451.294037 
	C569.836975,445.747223 567.975403,442.231232 562.222473,441.932556 
	C553.163696,441.462280 544.077515,440.768158 535.032043,441.062927 
	C529.153503,441.254456 529.051697,441.892609 529.012329,436.099152 
	C528.971741,430.114136 529.003296,424.128632 529.003296,418.143341 
	C528.019531,436.120789 528.007019,454.082672 528.055298,472.044403 
	C528.057800,472.979645 528.578247,473.913513 528.857666,474.848022 
M568.005066,431.681946 
	C568.005066,434.440582 568.005066,437.199188 568.005066,439.957825 
	C568.236816,439.941315 568.468628,439.924805 568.700378,439.908295 
	C568.700378,435.271393 568.700378,430.634491 568.700378,425.997620 
	C568.469604,425.992432 568.238892,425.987244 568.008118,425.982056 
	C568.008118,427.591736 568.008118,429.201416 568.005066,431.681946 
z"/>
<path fill="#183D71" opacity="1.000000" stroke="none" 
	d="
M631.733643,467.516846 
	C631.122131,469.778198 630.230164,471.544373 630.066406,473.375702 
	C629.549988,479.149109 629.420044,484.956787 628.917297,490.731781 
	C628.593811,494.447083 626.647644,495.093262 622.995239,494.123596 
	C616.325562,492.352905 609.510803,490.981689 602.675476,490.019623 
	C594.438843,488.860291 591.211548,487.085052 590.921936,480.689728 
	C590.785767,477.683105 592.792236,474.403290 594.379578,471.554749 
	C595.496277,469.550812 597.543701,468.065552 599.014832,466.123291 
	C607.622925,459.346405 616.384460,452.785065 625.176208,446.264435 
	C625.808777,445.795288 626.661865,445.623352 628.095337,445.154663 
	C629.780518,445.007477 630.782654,445.018921 631.784851,445.030334 
	C631.810425,445.478241 631.835999,445.926178 631.759338,446.813538 
	C631.569824,447.508728 631.610596,447.744263 631.779297,447.959503 
	C631.781616,454.323517 631.783936,460.687500 631.733643,467.516846 
z"/>
<path fill="#153260" opacity="1.000000" stroke="none" 
	d="
M680.280334,401.474060 
	C680.620239,407.789429 680.959900,414.560150 681.081360,421.334778 
	C681.215332,428.801819 681.149048,436.272461 681.145386,444.662842 
	C681.152527,446.516357 681.184387,447.448547 681.203491,448.749207 
	C681.207520,450.601868 681.224304,452.086060 681.203125,454.051971 
	C681.437195,459.000610 681.423645,463.512909 682.122986,467.911957 
	C682.399231,469.649567 683.976135,472.120239 685.457336,472.551331 
	C690.007629,473.875610 694.783875,474.470581 699.498657,475.171844 
	C706.466003,476.208191 711.612610,472.455139 711.907043,465.337708 
	C712.323975,455.259552 712.031006,445.152008 712.041504,435.057037 
	C712.358459,428.352325 712.675476,421.647583 713.239868,414.474060 
	C713.487305,414.005219 713.967163,414.009857 713.967163,414.009857 
	C714.134766,423.353027 714.302429,432.696228 714.632874,442.387939 
	C716.391724,462.615143 712.429871,481.097107 700.589600,497.438080 
	C690.721741,511.056824 676.740417,518.338013 660.316772,522.850952 
	C664.399475,516.962585 668.790466,511.925903 671.698486,506.143463 
	C676.527466,496.541504 678.885010,486.122070 679.038208,475.269775 
	C679.383301,450.823059 679.797729,426.377289 680.280334,401.474060 
z"/>
<path fill="#2170B5" opacity="1.000000" stroke="none" 
	d="
M474.372162,455.698029 
	C474.283661,455.325378 474.195160,454.952728 474.678558,454.355042 
	C478.527679,453.888214 482.556854,452.303650 484.948700,453.643036 
	C494.077271,458.754791 503.760406,456.084137 514.763794,457.618378 
	C513.805847,450.886597 512.975037,445.047668 512.144165,439.208740 
	C515.536926,438.561035 516.103882,440.552155 515.996765,443.267090 
	C515.612427,453.008484 515.126404,462.748322 514.927551,472.493805 
	C514.726379,482.354462 514.959778,482.901154 505.485138,484.714020 
	C496.372925,486.457550 487.015350,486.922974 477.763306,487.928558 
	C475.549683,488.169189 473.753326,487.815918 474.140381,484.016022 
	C474.216431,473.987579 474.294312,464.842804 474.372162,455.698029 
z"/>
<path fill="#2170B5" opacity="1.000000" stroke="none" 
	d="
M637.058533,437.148224 
	C647.865845,426.372986 658.658936,415.583374 669.501953,404.844177 
	C670.618164,403.738678 672.032593,402.934235 673.833069,402.386566 
	C674.606812,414.152374 674.856079,425.521698 675.105347,436.891022 
	C675.250732,442.318909 675.396118,447.746796 675.341919,453.737030 
	C674.729553,456.520416 674.316772,458.741455 673.656799,460.730469 
	C671.255737,459.302612 668.773010,458.466522 667.004028,456.849579 
	C658.697693,449.257050 648.013367,447.890289 637.576294,445.151703 
	C637.067810,444.878662 636.756104,444.795685 636.422302,444.795502 
	C636.376892,442.839752 636.331543,440.884003 636.451355,438.381409 
	C636.785645,437.619812 636.932983,437.391022 637.058533,437.148224 
z"/>
<path fill="#105899" opacity="1.000000" stroke="none" 
	d="
M637.795105,445.258942 
	C648.013367,447.890289 658.697693,449.257050 667.004028,456.849579 
	C668.773010,458.466522 671.255737,459.302612 673.670288,461.090820 
	C673.920044,462.163361 673.909180,462.643524 673.837524,463.205780 
	C673.693176,463.489838 673.727783,463.673981 673.948242,464.205261 
	C674.007324,467.745117 673.998718,470.920013 673.837769,474.372833 
	C673.744263,476.425568 673.803040,478.200378 673.575317,480.126648 
	C673.167603,481.847137 673.046326,483.416138 672.904968,485.308838 
	C672.607483,486.433563 672.330078,487.234558 671.639893,488.023499 
	C661.915405,485.359009 652.527466,482.940491 643.330566,479.936859 
	C639.747437,478.766602 637.537598,475.847321 637.902588,471.453278 
	C638.050049,469.677856 637.037292,467.806061 636.552551,465.978119 
	C636.455383,461.662811 636.358154,457.347473 636.482666,452.558716 
	C636.704407,452.085297 637.057617,451.996307 637.216370,451.832825 
	C637.573730,451.434418 637.726196,451.172638 637.821411,450.475708 
	C637.805176,448.464600 637.800171,446.861786 637.795105,445.258942 
z"/>
<path fill="#359DCA" opacity="1.000000" stroke="none" 
	d="
M529.252136,474.879395 
	C528.578247,473.913513 528.057800,472.979645 528.055298,472.044403 
	C528.007019,454.082672 528.019531,436.120789 529.003296,418.143341 
	C529.003296,424.128632 528.971741,430.114136 529.012329,436.099152 
	C529.051697,441.892609 529.153503,441.254456 535.032043,441.062927 
	C544.077515,440.768158 553.163696,441.462280 562.222473,441.932556 
	C567.975403,442.231232 569.836975,445.747223 568.993591,451.525208 
	C563.731628,455.725769 558.765137,459.962128 553.195496,463.141876 
	C545.586304,467.486023 537.518066,471.026031 529.252136,474.879395 
z"/>
<path fill="#14518C" opacity="1.000000" stroke="none" 
	d="
M636.450073,466.396729 
	C637.037292,467.806061 638.050049,469.677856 637.902588,471.453278 
	C637.537598,475.847321 639.747437,478.766602 643.330566,479.936859 
	C652.527466,482.940491 661.915405,485.359009 671.630920,488.437256 
	C670.321350,493.824707 669.146057,499.060730 666.785278,503.692505 
	C661.416321,514.226257 656.950989,515.605835 645.988098,511.164734 
	C637.470032,507.714050 635.431946,503.171844 636.341614,493.927734 
	C637.082947,486.393005 636.462524,478.724274 636.445862,471.114960 
	C636.413147,469.681732 636.380371,468.248535 636.450073,466.396729 
z"/>
<path fill="#183D71" opacity="1.000000" stroke="none" 
	d="
M636.348022,471.555084 
	C636.462524,478.724274 637.082947,486.393005 636.341614,493.927734 
	C635.431946,503.171844 637.470032,507.714050 645.988098,511.164734 
	C656.950989,515.605835 661.416321,514.226257 666.785278,503.692505 
	C669.146057,499.060730 670.321350,493.824707 672.043823,488.449280 
	C672.330078,487.234558 672.607483,486.433563 673.115356,485.129150 
	C673.843872,484.395966 674.341980,484.166199 674.840027,483.936432 
	C672.846008,505.465485 660.524658,525.240906 634.842651,528.770508 
	C628.792053,529.602051 622.711365,530.220459 616.636780,530.863892 
	C615.900940,530.941895 615.116699,530.562561 613.701599,530.251648 
	C628.554504,518.502625 634.832764,503.335144 635.086243,485.307556 
	C635.148621,480.865540 635.845093,476.432404 636.348022,471.555084 
z"/>
<path fill="#183D71" opacity="1.000000" stroke="none" 
	d="
M772.829468,301.374603 
	C773.440247,301.052948 773.877686,301.006042 774.645142,300.959778 
	C770.481812,305.680878 766.694336,311.553131 761.324829,314.844513 
	C753.782410,319.467834 752.173889,326.186798 751.021484,333.693024 
	C749.662598,342.543762 748.364380,351.404449 746.894775,360.236664 
	C746.744568,361.139282 745.754883,362.138214 744.891907,362.643860 
	C741.761230,364.478180 738.518616,366.121460 734.590820,368.226715 
	C731.919128,359.362671 729.313293,350.716980 726.409546,341.083130 
	C713.053772,350.366882 695.858887,352.829163 686.315552,367.855621 
	C687.623413,364.975250 688.750244,361.531921 690.923706,358.980042 
	C696.719788,352.174805 704.015930,347.438477 712.717896,344.961212 
	C715.094299,344.284729 717.278809,342.928558 719.657898,342.268311 
	C724.074646,341.042572 728.518372,339.647430 733.043030,339.132782 
	C742.432922,338.064758 749.044739,335.858368 750.095703,326.652008 
	C750.738525,321.021210 754.632019,317.366608 758.977295,313.955109 
	C763.790466,310.176208 768.117432,305.777893 772.829468,301.374603 
z"/>
<path fill="#153260" opacity="1.000000" stroke="none" 
	d="
M590.083374,458.154602 
	C579.322388,464.490387 568.780273,471.241638 557.745056,477.057098 
	C543.888611,484.359375 528.818115,488.200134 513.352539,490.425568 
	C509.789368,490.938293 506.186676,491.176544 502.372314,490.751007 
	C507.558990,488.951263 512.711609,487.045197 517.938354,485.370697 
	C538.100891,478.911102 556.378906,468.806671 573.681335,456.780182 
	C578.227905,453.619965 582.826782,450.535004 587.628967,447.603943 
	C587.414001,448.489075 587.111267,449.354919 586.505981,449.853699 
	C583.561584,452.280029 580.379395,454.441833 577.614563,457.050476 
	C576.466553,458.133636 576.148987,460.096924 575.453735,461.659973 
	C577.072937,461.556793 578.761780,461.711700 580.296875,461.297211 
	C583.600952,460.404999 586.825989,459.219849 590.083374,458.154602 
z"/>
<path fill="#183D71" opacity="1.000000" stroke="none" 
	d="
M590.107422,458.128967 
	C586.825989,459.219849 583.600952,460.404999 580.296875,461.297211 
	C578.761780,461.711700 577.072937,461.556793 575.453735,461.659973 
	C576.148987,460.096924 576.466553,458.133636 577.614563,457.050476 
	C580.379395,454.441833 583.561584,452.280029 586.505981,449.853699 
	C587.111267,449.354919 587.414001,448.489075 587.948120,447.474426 
	C588.196716,446.847900 588.353577,446.539429 588.896484,445.935333 
	C589.507202,445.436340 589.712036,445.214691 589.897034,444.974762 
	C589.897034,444.974762 589.874023,444.887146 590.085205,444.735229 
	C590.524170,444.404755 590.746887,444.220123 590.964600,444.029419 
	C591.463379,443.765076 591.962097,443.500763 592.893433,442.954437 
	C593.554504,442.466980 593.751404,442.234802 593.916870,441.975891 
	C593.916870,441.975891 593.904907,441.923676 594.089172,441.771973 
	C594.473755,441.415497 594.662354,441.200378 594.839172,440.974945 
	C594.839172,440.974945 594.826843,440.825653 595.065186,440.686707 
	C595.527222,440.381409 595.742310,440.204651 595.948853,440.017517 
	C604.412842,432.765930 612.876831,425.514343 621.646667,418.139221 
	C620.722656,420.081909 619.404724,422.102203 618.294861,424.230988 
	C617.591919,425.579285 617.199219,427.089294 616.667297,428.526764 
	C618.325134,428.778625 620.498169,429.827423 621.552551,429.145782 
	C626.381653,426.023987 630.898926,422.419586 635.525269,418.984619 
	C638.124329,417.054901 640.717773,415.117615 643.670166,413.221680 
	C636.568176,420.074585 629.109741,426.889557 621.175659,434.020905 
	C620.459595,434.543854 620.251038,434.778687 620.074280,435.041809 
	C620.074280,435.041809 620.049377,435.049622 619.872681,435.205078 
	C619.473816,435.566528 619.271301,435.790161 619.088318,436.031525 
	C619.088318,436.031525 619.105896,436.087463 618.920776,436.242920 
	C618.534485,436.602234 618.342712,436.814545 618.160400,437.035370 
	C618.160400,437.035370 618.188782,437.258362 617.773560,437.271362 
	C616.577881,437.853088 615.797363,438.421814 615.016846,438.990570 
	C615.016846,438.990570 615.018494,439.014771 614.828247,439.163818 
	C614.412720,439.526672 614.223328,439.768555 614.069702,440.038513 
	C614.069702,440.038513 614.040039,440.040527 613.865356,440.196411 
	C613.466919,440.559448 613.265015,440.786011 613.084839,441.031982 
	C613.084839,441.031982 613.091248,441.081238 612.899414,441.245544 
	C612.480713,441.618286 612.282288,441.850983 612.112305,442.107910 
	C611.280945,442.661285 610.449646,443.214661 609.175903,444.065857 
	C608.496887,444.564758 608.281372,444.786407 608.086914,445.028625 
	C608.086914,445.028625 608.165039,445.162872 607.773682,445.183350 
	C606.588196,445.785950 605.794067,446.368042 604.999878,446.950134 
	C604.999878,446.950134 605.022034,447.001862 604.647461,447.023193 
	C603.179504,448.015472 602.086060,448.986450 600.992676,449.957458 
	C600.992676,449.957458 601.020325,450.000732 600.823975,450.154266 
	C600.411621,450.523315 600.228943,450.764130 600.079590,451.030273 
	C600.079590,451.030273 600.121460,451.107849 599.750854,451.126038 
	C598.600586,451.763916 597.820984,452.383575 597.041382,453.003235 
	C597.041382,453.003204 597.047974,453.042572 596.698364,453.061340 
	C595.572510,453.714722 594.796326,454.349304 594.020142,454.983887 
	C594.020142,454.983887 594.031006,455.022858 593.829163,455.156738 
	C593.395386,455.481750 593.186951,455.695801 593.002075,455.932770 
	C593.002075,455.932770 592.966309,455.988800 592.614502,456.001160 
	C591.541992,456.689087 590.821228,457.364716 590.100464,458.040314 
	C590.100464,458.040314 590.131409,458.103394 590.107422,458.128967 
z"/>
<path fill="#359DCA" opacity="1.000000" stroke="none" 
	d="
M511.698547,439.145630 
	C512.975037,445.047668 513.805847,450.886597 514.763794,457.618378 
	C503.760406,456.084137 494.077271,458.754791 484.948700,453.643036 
	C482.556854,452.303650 478.527679,453.888214 474.779755,454.181000 
	C474.268188,451.714752 474.227295,449.197510 474.387939,446.232910 
	C474.762695,445.678589 474.851654,445.523224 474.856293,445.319519 
	C483.500183,443.742157 492.137665,442.128296 500.791107,440.605316 
	C504.260254,439.994781 507.764618,439.584137 511.698547,439.145630 
z"/>
<path fill="#48B7D4" opacity="1.000000" stroke="none" 
	d="
M583.569458,362.170593 
	C583.668152,365.003418 583.082336,367.770416 583.039429,370.545807 
	C582.784363,387.068085 582.654785,403.592316 582.378784,420.497498 
	C582.182495,402.218292 582.074097,383.557495 582.047607,364.896545 
	C582.046326,363.967743 582.756836,363.037964 583.569458,362.170593 
z"/>
<path fill="#14518C" opacity="1.000000" stroke="none" 
	d="
M728.732239,304.053375 
	C727.076172,306.179382 725.117920,308.268982 722.220093,311.361145 
	C722.220093,308.230286 722.220093,306.565796 722.220093,304.412476 
	C719.955078,304.412476 717.776184,304.412476 715.312256,304.232849 
	C719.490295,302.361847 723.952393,300.310425 728.732239,304.053375 
z"/>
<path fill="#14518C" opacity="1.000000" stroke="none" 
	d="
M673.990112,474.094879 
	C673.998718,470.920013 674.007324,467.745117 673.953857,464.027100 
	C673.891785,463.483978 673.898254,463.123657 673.898315,463.123657 
	C673.909180,462.643524 673.920044,462.163361 673.917480,461.322876 
	C674.316772,458.741455 674.729553,456.520416 675.467285,454.133606 
	C675.826904,460.984497 675.861694,468.001129 675.589722,475.383972 
	C674.852051,475.198395 674.421082,474.646637 673.990112,474.094879 
z"/>
<path fill="#30AAAB" opacity="1.000000" stroke="none" 
	d="
M675.398804,436.608734 
	C674.856079,425.521698 674.606812,414.152374 674.194031,402.401489 
	C674.678772,402.668182 675.889954,403.315247 675.891357,403.964905 
	C675.914917,414.751892 675.786621,425.539215 675.398804,436.608734 
z"/>
<path fill="#183D71" opacity="1.000000" stroke="none" 
	d="
M782.395630,290.911743 
	C783.092041,288.076965 784.385437,285.189026 785.062866,282.163208 
	C785.728638,279.189545 785.768921,276.075836 785.998840,272.680847 
	C786.850403,274.017181 788.922302,276.061432 788.520691,277.310120 
	C787.028931,281.947968 784.723083,286.323944 782.395630,290.911743 
z"/>
<path fill="#48B7D4" opacity="1.000000" stroke="none" 
	d="
M473.906189,455.835266 
	C474.294312,464.842804 474.216431,473.987579 474.075043,483.601746 
	C473.666809,483.788635 473.018280,483.502777 473.021362,483.224182 
	C473.122284,474.139862 473.285919,465.056213 473.906189,455.835266 
z"/>
<path fill="#14518C" opacity="1.000000" stroke="none" 
	d="
M712.551392,304.184265 
	C709.471802,304.945068 705.972290,305.613586 702.171753,306.059845 
	C705.290955,305.255737 708.711243,304.673859 712.551392,304.184265 
z"/>
<path fill="#14518C" opacity="1.000000" stroke="none" 
	d="
M683.621094,309.212341 
	C681.191589,309.999939 678.358032,310.676788 675.229248,311.141724 
	C677.695129,310.320435 680.456055,309.711029 683.621094,309.212341 
z"/>
<path fill="#183D71" opacity="1.000000" stroke="none" 
	d="
M777.536926,298.913910 
	C778.610168,296.427124 779.989441,293.820038 781.698364,291.133636 
	C780.632996,293.634064 779.237976,296.213837 777.536926,298.913910 
z"/>
<path fill="#14518C" opacity="1.000000" stroke="none" 
	d="
M693.631348,307.189331 
	C691.560608,308.017700 689.095032,308.738678 686.343018,309.288757 
	C688.449829,308.439240 690.843201,307.760559 693.631348,307.189331 
z"/>
<path fill="#183D71" opacity="1.000000" stroke="none" 
	d="
M663.741699,393.839355 
	C664.763611,392.033569 666.054688,390.103119 667.685791,388.103333 
	C666.687500,389.927521 665.349182,391.821136 663.741699,393.839355 
z"/>
<path fill="#14518C" opacity="1.000000" stroke="none" 
	d="
M740.660522,294.040436 
	C739.260132,295.688171 737.507324,297.326752 735.400024,298.986328 
	C736.799744,297.348633 738.553955,295.689972 740.660522,294.040436 
z"/>
<path fill="#183D71" opacity="1.000000" stroke="none" 
	d="
M673.837769,474.372833 
	C674.421082,474.646637 674.852051,475.198395 675.541504,475.846680 
	C675.647522,477.452179 675.495117,478.961121 674.856934,480.546387 
	C674.184814,480.419952 674.015015,480.204102 673.861816,479.975159 
	C673.803040,478.200378 673.744263,476.425568 673.837769,474.372833 
z"/>
<path fill="#183D71" opacity="1.000000" stroke="none" 
	d="
M637.576294,445.151703 
	C637.800171,446.861786 637.805176,448.464600 637.667236,450.642761 
	C637.335693,451.457642 637.180115,451.717072 637.057617,451.996307 
	C637.057617,451.996307 636.704407,452.085297 636.523193,452.103241 
	C636.285339,449.976013 636.228638,447.830841 636.297119,445.240601 
	C636.756104,444.795685 637.067810,444.878662 637.576294,445.151703 
z"/>
<path fill="#14518C" opacity="1.000000" stroke="none" 
	d="
M673.575317,480.126648 
	C674.015015,480.204102 674.184814,480.419952 674.533142,480.747437 
	C674.744507,481.638641 674.794006,482.405029 674.841797,483.553955 
	C674.341980,484.166199 673.843872,484.395966 673.135437,484.805420 
	C673.046326,483.416138 673.167603,481.847137 673.575317,480.126648 
z"/>
<path fill="#14518C" opacity="1.000000" stroke="none" 
	d="
M733.699890,300.094879 
	C732.622986,301.395020 731.198242,302.688049 729.424255,304.007324 
	C730.500732,302.718353 731.926392,301.403076 733.699890,300.094879 
z"/>
<path fill="#183D71" opacity="1.000000" stroke="none" 
	d="
M673.720581,382.871765 
	C674.408020,381.381653 675.369019,379.771210 676.671875,378.093201 
	C676.007202,379.600891 675.000671,381.176147 673.720581,382.871765 
z"/>
<path fill="#153260" opacity="1.000000" stroke="none" 
	d="
M631.832092,444.691895 
	C630.782654,445.018921 629.780518,445.007477 628.402588,444.988647 
	C629.009338,444.090302 629.991943,443.199371 630.974487,442.308441 
	C631.276062,442.990112 631.577698,443.671783 631.832092,444.691895 
z"/>
<path fill="#14518C" opacity="1.000000" stroke="none" 
	d="
M699.656189,306.215515 
	C698.821411,306.638855 697.614685,306.970276 696.157959,307.102722 
	C697.033386,306.643738 698.158813,306.383698 699.656189,306.215515 
z"/>
<path fill="#153260" opacity="1.000000" stroke="none" 
	d="
M601.338501,449.982544 
	C602.086060,448.986450 603.179504,448.015472 604.619446,447.025513 
	C603.872070,448.006897 602.778198,449.007294 601.338501,449.982544 
z"/>
<path fill="#14518C" opacity="1.000000" stroke="none" 
	d="
M672.679932,311.137207 
	C672.126709,311.565796 671.225098,311.896881 670.101807,312.037292 
	C670.697327,311.577637 671.514404,311.308655 672.679932,311.137207 
z"/>
<path fill="#14518C" opacity="1.000000" stroke="none" 
	d="
M667.684326,312.164795 
	C667.129517,312.594971 666.229126,312.916718 665.110718,313.046112 
	C665.708069,312.587952 666.523438,312.322174 667.684326,312.164795 
z"/>
<path fill="#183D71" opacity="1.000000" stroke="none" 
	d="
M682.212158,372.678223 
	C682.405945,371.897766 682.903381,371.046173 683.701355,370.103027 
	C683.506531,370.876709 683.011169,371.741913 682.212158,372.678223 
z"/>
<path fill="#153260" opacity="1.000000" stroke="none" 
	d="
M605.304932,446.896912 
	C605.794067,446.368042 606.588196,445.785950 607.710388,445.228363 
	C607.229004,445.783142 606.419495,446.313416 605.304932,446.896912 
z"/>
<path fill="#153260" opacity="1.000000" stroke="none" 
	d="
M615.315430,438.935242 
	C615.797363,438.421814 616.577881,437.853088 617.678894,437.331909 
	C617.204285,437.879578 616.409180,438.379730 615.315430,438.935242 
z"/>
<path fill="#183D71" opacity="1.000000" stroke="none" 
	d="
M745.601196,289.910156 
	C745.153320,290.535767 744.374939,291.139435 743.263916,291.743652 
	C743.711121,291.125549 744.490906,290.506866 745.601196,289.910156 
z"/>
<path fill="#153260" opacity="1.000000" stroke="none" 
	d="
M597.348083,452.943604 
	C597.820984,452.383575 598.600586,451.763916 599.712891,451.148468 
	C599.248657,451.729767 598.451721,452.306854 597.348083,452.943604 
z"/>
<path fill="#153260" opacity="1.000000" stroke="none" 
	d="
M594.354858,454.996948 
	C594.796326,454.349304 595.572510,453.714722 596.678894,453.065857 
	C596.235901,453.704376 595.462708,454.357178 594.354858,454.996948 
z"/>
<path fill="#153260" opacity="1.000000" stroke="none" 
	d="
M590.406494,457.994537 
	C590.821228,457.364716 591.541992,456.689087 592.585571,455.984863 
	C592.176392,456.620422 591.444458,457.284607 590.406494,457.994537 
z"/>
<path fill="#14518C" opacity="1.000000" stroke="none" 
	d="
M662.719299,313.107513 
	C662.456970,313.535858 661.881409,313.878296 661.118530,314.071869 
	C661.422791,313.622528 661.914429,313.322052 662.719299,313.107513 
z"/>
<path fill="#183D71" opacity="1.000000" stroke="none" 
	d="
M779.634583,272.234558 
	C779.163330,272.538666 778.357544,272.744019 777.232422,272.951324 
	C777.708740,272.680786 778.504456,272.408295 779.634583,272.234558 
z"/>
<path fill="#183D71" opacity="1.000000" stroke="none" 
	d="
M773.595703,273.945679 
	C773.145081,274.234009 772.340332,274.545685 771.198059,274.883423 
	C771.654236,274.596039 772.447876,274.282532 773.595703,273.945679 
z"/>
<path fill="#183D71" opacity="1.000000" stroke="none" 
	d="
M678.296326,376.972839 
	C678.217346,376.771912 678.421204,376.537354 678.858765,376.205292 
	C678.880249,376.349274 678.709167,376.626404 678.296326,376.972839 
z"/>
<path fill="#183D71" opacity="1.000000" stroke="none" 
	d="
M684.251343,369.931091 
	C684.176819,369.730591 684.384644,369.496002 684.834961,369.174042 
	C684.853638,369.319000 684.672363,369.589111 684.251343,369.931091 
z"/>
<path fill="#153260" opacity="1.000000" stroke="none" 
	d="
M589.659180,445.035889 
	C589.712036,445.214691 589.507202,445.436340 589.098755,445.769470 
	C588.953613,445.549835 589.122437,445.282410 589.659180,445.035889 
z"/>
<path fill="#2170B5" opacity="1.000000" stroke="none" 
	d="
M474.674500,445.271332 
	C474.851654,445.523224 474.762695,445.678589 474.454529,445.818298 
	C474.137909,445.575500 474.195587,445.366241 474.674500,445.271332 
z"/>
<path fill="#153260" opacity="1.000000" stroke="none" 
	d="
M608.327759,444.966095 
	C608.281372,444.786407 608.496887,444.564758 608.925537,444.235229 
	C609.052002,444.453278 608.869080,444.718872 608.327759,444.966095 
z"/>
<path fill="#153260" opacity="1.000000" stroke="none" 
	d="
M590.704712,444.018066 
	C590.746887,444.220123 590.524170,444.404755 590.128418,444.721741 
	C590.121948,444.575714 590.283386,444.291229 590.704712,444.018066 
z"/>
<path fill="#183D71" opacity="1.000000" stroke="none" 
	d="
M679.323547,375.982117 
	C679.236694,375.784271 679.430298,375.539673 679.835815,375.170959 
	C679.868591,375.318298 679.720642,375.614471 679.323547,375.982117 
z"/>
<path fill="#153260" opacity="1.000000" stroke="none" 
	d="
M593.690674,442.061340 
	C593.751404,442.234802 593.554504,442.466980 593.142517,442.807953 
	C593.013550,442.605652 593.182068,442.340088 593.690674,442.061340 
z"/>
<path fill="#153260" opacity="1.000000" stroke="none" 
	d="
M612.358154,442.039246 
	C612.282288,441.850983 612.480713,441.618286 612.875122,441.250793 
	C612.896423,441.384674 612.750183,441.677612 612.358154,442.039246 
z"/>
<path fill="#153260" opacity="1.000000" stroke="none" 
	d="
M594.602112,441.026184 
	C594.662354,441.200378 594.473755,441.415497 594.115112,441.765259 
	C593.922668,441.549255 594.058777,441.271637 594.602112,441.026184 
z"/>
<path fill="#153260" opacity="1.000000" stroke="none" 
	d="
M613.320129,440.959778 
	C613.265015,440.786011 613.466919,440.559448 613.868896,440.210876 
	C614.017029,440.422485 613.853088,440.695190 613.320129,440.959778 
z"/>
<path fill="#153260" opacity="1.000000" stroke="none" 
	d="
M595.698486,440.004517 
	C595.742310,440.204651 595.527222,440.381409 595.139526,440.677612 
	C595.133057,440.535461 595.290588,440.263489 595.698486,440.004517 
z"/>
<path fill="#183D71" opacity="1.000000" stroke="none" 
	d="
M685.291748,368.956024 
	C685.202637,368.756134 685.398132,368.509888 685.826233,368.156097 
	C685.855164,368.301575 685.694336,368.588623 685.291748,368.956024 
z"/>
<path fill="#153260" opacity="1.000000" stroke="none" 
	d="
M614.289917,439.937073 
	C614.223328,439.768555 614.412720,439.526672 614.816406,439.166443 
	C614.946655,439.359314 614.785095,439.631165 614.289917,439.937073 
z"/>
<path fill="#183D71" opacity="1.000000" stroke="none" 
	d="
M677.259277,377.936340 
	C677.181152,377.736328 677.385925,377.499512 677.837769,377.178528 
	C677.974487,377.401428 677.793579,377.669800 677.259277,377.936340 
z"/>
<path fill="#183D71" opacity="1.000000" stroke="none" 
	d="
M672.378906,384.039185 
	C672.316956,383.851990 672.513733,383.650146 672.892517,383.331024 
	C673.087158,383.560974 672.941589,383.831207 672.378906,384.039185 
z"/>
<path fill="#183D71" opacity="1.000000" stroke="none" 
	d="
M636.808350,437.175659 
	C636.932983,437.391022 636.785645,437.619812 636.456909,437.961273 
	C636.384277,437.792999 636.471252,437.498047 636.808350,437.175659 
z"/>
<path fill="#183D71" opacity="1.000000" stroke="none" 
	d="
M671.320740,384.999268 
	C671.248657,384.802643 671.452087,384.579193 671.867554,384.245941 
	C671.887390,384.386566 671.726257,384.665375 671.320740,384.999268 
z"/>
<path fill="#153260" opacity="1.000000" stroke="none" 
	d="
M618.398621,436.986694 
	C618.342712,436.814545 618.534485,436.602234 618.892944,436.252075 
	C619.084106,436.468353 618.946350,436.745758 618.398621,436.986694 
z"/>
<path fill="#183D71" opacity="1.000000" stroke="none" 
	d="
M670.309631,386.013123 
	C670.221985,385.815826 670.420105,385.568604 670.856995,385.215881 
	C670.881592,385.356659 670.714783,385.640930 670.309631,386.013123 
z"/>
<path fill="#153260" opacity="1.000000" stroke="none" 
	d="
M619.325134,435.963806 
	C619.271301,435.790161 619.473816,435.566528 619.871643,435.218079 
	C620.024780,435.431366 619.862976,435.704865 619.325134,435.963806 
z"/>
<path fill="#153260" opacity="1.000000" stroke="none" 
	d="
M620.306458,434.954895 
	C620.251038,434.778687 620.459595,434.543854 620.892456,434.201294 
	C621.008850,434.404999 620.826782,434.672577 620.306458,434.954895 
z"/>
<path fill="#183D71" opacity="1.000000" stroke="none" 
	d="
M753.778503,284.137512 
	C753.802917,284.366119 753.552673,284.550507 753.087158,284.828705 
	C753.088196,284.653778 753.298828,284.377380 753.778503,284.137512 
z"/>
<path fill="#183D71" opacity="1.000000" stroke="none" 
	d="
M774.777100,273.098572 
	C774.811829,273.319489 774.570374,273.510681 774.129639,273.819916 
	C774.124512,273.653229 774.314697,273.363556 774.777100,273.098572 
z"/>
<path fill="#183D71" opacity="1.000000" stroke="none" 
	d="
M769.767029,275.072174 
	C769.784973,275.290802 769.525574,275.478424 769.061646,275.790283 
	C769.065552,275.619965 769.276367,275.328888 769.767029,275.072174 
z"/>
<path fill="#183D71" opacity="1.000000" stroke="none" 
	d="
M767.764282,276.059265 
	C767.780701,276.276093 767.518677,276.464874 767.050293,276.778870 
	C767.055298,276.609589 767.269226,276.318665 767.764282,276.059265 
z"/>
<path fill="#183D71" opacity="1.000000" stroke="none" 
	d="
M765.758789,277.041077 
	C765.772156,277.251221 765.507446,277.441284 765.039673,277.765533 
	C765.046326,277.599854 765.261047,277.306946 765.758789,277.041077 
z"/>
<path fill="#183D71" opacity="1.000000" stroke="none" 
	d="
M763.761719,278.032837 
	C763.771606,278.243927 763.501160,278.433258 763.023315,278.756042 
	C763.032593,278.589233 763.254333,278.296448 763.761719,278.032837 
z"/>
<path fill="#183D71" opacity="1.000000" stroke="none" 
	d="
M761.757507,279.009735 
	C761.771423,279.223938 761.505127,279.411743 761.030640,279.724609 
	C761.038452,279.557709 761.256714,279.268921 761.757507,279.009735 
z"/>
<path fill="#183D71" opacity="1.000000" stroke="none" 
	d="
M758.780701,281.152008 
	C758.813477,281.378052 758.570007,281.568176 758.112549,281.854675 
	C758.109192,281.683838 758.311157,281.405487 758.780701,281.152008 
z"/>
<path fill="#183D71" opacity="1.000000" stroke="none" 
	d="
M756.774780,282.086060 
	C756.792847,282.309570 756.532593,282.495117 756.059326,282.790283 
	C756.064392,282.617950 756.281128,282.334015 756.774780,282.086060 
z"/>
<path fill="#153260" opacity="1.000000" stroke="none" 
	d="
M593.240601,455.878906 
	C593.186951,455.695801 593.395386,455.481750 593.809082,455.159180 
	C593.956421,455.380951 593.785828,455.646698 593.240601,455.878906 
z"/>
<path fill="#183D71" opacity="1.000000" stroke="none" 
	d="
M668.264160,387.937988 
	C668.187439,387.742432 668.392578,387.497711 668.845764,387.161102 
	C668.865173,387.303894 668.682617,387.577087 668.264160,387.937988 
z"/>
<path fill="#183D71" opacity="1.000000" stroke="none" 
	d="
M750.771729,286.089844 
	C750.786865,286.312836 750.525452,286.496704 750.047852,286.784058 
	C750.054382,286.610718 750.275574,286.331787 750.771729,286.089844 
z"/>
<path fill="#183D71" opacity="1.000000" stroke="none" 
	d="
M747.775513,288.012756 
	C747.794067,288.224274 747.542725,288.389282 747.110107,288.688568 
	C747.120178,288.535797 747.312439,288.250244 747.775513,288.012756 
z"/>
<path fill="#153260" opacity="1.000000" stroke="none" 
	d="
M600.300293,450.932739 
	C600.228943,450.764130 600.411621,450.523315 600.798706,450.158691 
	C600.946472,450.353424 600.796875,450.628632 600.300293,450.932739 
z"/>
<path fill="#183D71" opacity="1.000000" stroke="none" 
	d="
M746.604126,289.012817 
	C746.698120,289.207428 746.517700,289.452026 746.117798,289.808044 
	C745.926819,289.584930 746.070557,289.299347 746.604126,289.012817 
z"/>
<path fill="#153260" opacity="1.000000" stroke="none" 
	d="
M631.817749,447.731567 
	C631.610596,447.744263 631.569824,447.508728 631.727783,447.148987 
	C631.798462,447.045013 631.856201,447.503662 631.817749,447.731567 
z"/>
<path fill="#183D71" opacity="1.000000" stroke="none" 
	d="
M742.638184,292.025940 
	C742.731140,292.229919 742.539062,292.478485 742.100342,292.818024 
	C742.068115,292.666534 742.234619,292.387024 742.638184,292.025940 
z"/>
<path fill="#14518C" opacity="1.000000" stroke="none" 
	d="
M734.773682,299.135681 
	C734.851257,299.314941 734.668030,299.545898 734.274292,299.885895 
	C734.114441,299.679474 734.264099,299.410248 734.773682,299.135681 
z"/>
<path fill="#183D71" opacity="1.000000" stroke="none" 
	d="
M776.232300,300.034424 
	C776.148193,299.814209 776.369507,299.576202 776.836853,299.241211 
	C776.856750,299.393707 776.675049,299.684479 776.232300,300.034424 
z"/>
<path fill="#183D71" opacity="1.000000" stroke="none" 
	d="
M655.356689,402.007751 
	C655.287292,401.816010 655.485229,401.598083 655.879150,401.262451 
	C656.070496,401.493378 655.920166,401.772339 655.356689,402.007751 
z"/>
<path fill="#183D71" opacity="1.000000" stroke="none" 
	d="
M651.340576,405.994141 
	C651.269470,405.800446 651.470154,405.575409 651.872314,405.230438 
	C651.895020,405.372375 651.741211,405.656494 651.340576,405.994141 
z"/>
<path fill="#183D71" opacity="1.000000" stroke="none" 
	d="
M634.528015,404.965881 
	C634.591492,405.141541 634.416443,405.332977 634.081543,405.640625 
	C633.878601,405.425842 634.001221,405.167450 634.528015,404.965881 
z"/>
<path fill="#183D71" opacity="1.000000" stroke="none" 
	d="
M652.340210,404.995728 
	C652.268982,404.801941 652.469727,404.576324 652.872681,404.230835 
	C652.895386,404.372803 652.741211,404.657104 652.340210,404.995728 
z"/>
<path fill="#183D71" opacity="1.000000" stroke="none" 
	d="
M635.535156,403.974396 
	C635.602478,404.153809 635.429810,404.343750 635.091675,404.641357 
	C634.890320,404.424957 635.013306,404.170258 635.535156,403.974396 
z"/>
<path fill="#183D71" opacity="1.000000" stroke="none" 
	d="
M653.340576,403.997559 
	C653.269409,403.803925 653.470032,403.579407 653.873047,403.236206 
	C653.895386,403.377594 653.740967,403.660614 653.340576,403.997559 
z"/>
<path fill="#183D71" opacity="1.000000" stroke="none" 
	d="
M636.539062,402.976074 
	C636.608582,403.157593 636.436523,403.347717 636.098389,403.644653 
	C635.892273,403.426483 636.013977,403.170898 636.539062,402.976074 
z"/>
<path fill="#183D71" opacity="1.000000" stroke="none" 
	d="
M644.574585,394.897614 
	C644.675964,395.080170 644.499573,395.336121 644.111084,395.729126 
	C644.079956,395.601074 644.212585,395.302673 644.574585,394.897614 
z"/>
<path fill="#183D71" opacity="1.000000" stroke="none" 
	d="
M654.352051,403.005585 
	C654.282471,402.812836 654.482727,402.591095 654.878906,402.246826 
	C654.901184,402.387939 654.750183,402.672028 654.352051,403.005585 
z"/>
<path fill="#183D71" opacity="1.000000" stroke="none" 
	d="
M637.556641,401.975372 
	C637.626526,402.157928 637.450867,402.352203 637.105469,402.655579 
	C636.899719,402.435516 637.024841,402.176331 637.556641,401.975372 
z"/>
<path fill="#183D71" opacity="1.000000" stroke="none" 
	d="
M661.465820,396.043579 
	C661.404175,395.868317 661.581360,395.678741 661.920410,395.375183 
	C662.118164,395.590302 661.992249,395.846344 661.465820,396.043579 
z"/>
<path fill="#183D71" opacity="1.000000" stroke="none" 
	d="
M633.535278,405.968506 
	C633.601440,406.146637 633.426392,406.339935 633.085938,406.645508 
	C632.885132,406.429596 633.009705,406.171539 633.535278,405.968506 
z"/>
<path fill="#183D71" opacity="1.000000" stroke="none" 
	d="
M638.565918,400.970795 
	C638.632446,401.152252 638.450134,401.352997 638.098022,401.672913 
	C637.892578,401.451508 638.022217,401.184174 638.565918,400.970795 
z"/>
<path fill="#183D71" opacity="1.000000" stroke="none" 
	d="
M656.388550,401.029663 
	C656.324585,400.842438 656.519653,400.636108 656.894287,400.307373 
	C657.095886,400.537415 656.953796,400.812622 656.388550,401.029663 
z"/>
<path fill="#183D71" opacity="1.000000" stroke="none" 
	d="
M639.575500,399.969482 
	C639.639832,400.152100 639.452942,400.354004 639.095093,400.677856 
	C638.890503,400.453705 639.023926,400.183350 639.575500,399.969482 
z"/>
<path fill="#183D71" opacity="1.000000" stroke="none" 
	d="
M657.427124,400.030823 
	C657.362549,399.848694 657.548096,399.647858 657.904053,399.326263 
	C658.108521,399.549622 657.976196,399.818512 657.427124,400.030823 
z"/>
<path fill="#183D71" opacity="1.000000" stroke="none" 
	d="
M640.592041,398.977631 
	C640.658447,399.162231 640.469849,399.368774 640.103027,399.695190 
	C639.903137,399.470215 640.040527,399.198395 640.592041,398.977631 
z"/>
<path fill="#183D71" opacity="1.000000" stroke="none" 
	d="
M658.438293,399.028259 
	C658.373108,398.847321 658.555725,398.647552 658.907471,398.328613 
	C659.110779,398.549683 658.980591,398.816315 658.438293,399.028259 
z"/>
<path fill="#183D71" opacity="1.000000" stroke="none" 
	d="
M641.591858,397.978943 
	C641.658081,398.163239 641.468689,398.371979 641.101562,398.703491 
	C640.900574,398.478455 641.038025,398.204132 641.591858,397.978943 
z"/>
<path fill="#183D71" opacity="1.000000" stroke="none" 
	d="
M659.440674,398.030334 
	C659.376099,397.850037 659.558533,397.651184 659.909485,397.333527 
	C660.111816,397.554047 659.981689,397.819763 659.440674,398.030334 
z"/>
<path fill="#183D71" opacity="1.000000" stroke="none" 
	d="
M642.602112,396.975006 
	C642.667419,397.160309 642.474854,397.369965 642.103149,397.703766 
	C641.902161,397.476746 642.042175,397.200531 642.602112,396.975006 
z"/>
<path fill="#183D71" opacity="1.000000" stroke="none" 
	d="
M660.446350,397.035614 
	C660.382629,396.856476 660.563843,396.660736 660.912598,396.348694 
	C661.112305,396.567902 660.982727,396.830109 660.446350,397.035614 
z"/>
<path fill="#183D71" opacity="1.000000" stroke="none" 
	d="
M628.614380,410.993866 
	C628.685303,411.184387 628.493713,411.398712 628.117981,411.735474 
	C627.910645,411.504761 628.049988,411.224670 628.614380,410.993866 
z"/>
<path fill="#183D71" opacity="1.000000" stroke="none" 
	d="
M622.693237,417.054108 
	C622.788940,417.254517 622.605591,417.490540 622.191345,417.819275 
	C622.010986,417.592834 622.162170,417.318756 622.693237,417.054108 
z"/>
<path fill="#183D71" opacity="1.000000" stroke="none" 
	d="
M623.677734,416.030884 
	C623.764221,416.232178 623.572632,416.463135 623.159607,416.794006 
	C622.974182,416.561493 623.127991,416.283691 623.677734,416.030884 
z"/>
<path fill="#183D71" opacity="1.000000" stroke="none" 
	d="
M624.661621,415.011353 
	C624.737244,415.209930 624.538940,415.435059 624.139771,415.778809 
	C624.113098,415.632538 624.262695,415.346069 624.661621,415.011353 
z"/>
<path fill="#183D71" opacity="1.000000" stroke="none" 
	d="
M662.492737,395.047913 
	C662.430603,394.876312 662.601929,394.689575 662.928101,394.387939 
	C663.129456,394.598083 663.010559,394.851379 662.492737,395.047913 
z"/>
<path fill="#183D71" opacity="1.000000" stroke="none" 
	d="
M625.650024,414.010437 
	C625.725403,414.206177 625.529663,414.429901 625.135925,414.773132 
	C625.109436,414.629333 625.256409,414.344574 625.650024,414.010437 
z"/>
<path fill="#153260" opacity="1.000000" stroke="none" 
	d="
M680.740112,394.052002 
	C680.876953,394.222382 680.749756,394.483093 680.420349,394.878845 
	C680.176147,394.696442 680.262085,394.405945 680.740112,394.052002 
z"/>
<path fill="#183D71" opacity="1.000000" stroke="none" 
	d="
M626.625488,412.997009 
	C626.696716,413.189301 626.502136,413.407684 626.122253,413.752777 
	C626.096436,413.610657 626.237366,413.325165 626.625488,412.997009 
z"/>
<path fill="#183D71" opacity="1.000000" stroke="none" 
	d="
M644.371582,413.001007 
	C644.299805,412.808472 644.493652,412.591492 644.876404,412.253021 
	C645.081543,412.485504 644.938843,412.767212 644.371582,413.001007 
z"/>
<path fill="#183D71" opacity="1.000000" stroke="none" 
	d="
M627.624268,411.994507 
	C627.694885,412.186493 627.500977,412.401611 627.120667,412.739075 
	C626.914001,412.506409 627.055847,412.225128 627.624268,411.994507 
z"/>
<path fill="#183D71" opacity="1.000000" stroke="none" 
	d="
M645.365601,412.001404 
	C645.294739,411.808228 645.490906,411.590240 645.876221,411.248779 
	C645.900818,411.390778 645.756592,411.674591 645.365601,412.001404 
z"/>
<path fill="#183D71" opacity="1.000000" stroke="none" 
	d="
M643.618286,395.981171 
	C643.685364,396.168182 643.490417,396.383331 643.107971,396.720673 
	C642.913879,396.493530 643.059143,396.215668 643.618286,395.981171 
z"/>
<path fill="#183D71" opacity="1.000000" stroke="none" 
	d="
M646.356873,410.996582 
	C646.284912,410.802795 646.482056,410.581665 646.872803,410.238037 
	C646.897400,410.380371 646.750610,410.664917 646.356873,410.996582 
z"/>
<path fill="#183D71" opacity="1.000000" stroke="none" 
	d="
M629.591919,409.989441 
	C629.662109,410.176575 629.474731,410.387634 629.109436,410.722046 
	C628.900208,410.494904 629.034485,410.217529 629.591919,409.989441 
z"/>
<path fill="#183D71" opacity="1.000000" stroke="none" 
	d="
M647.346436,409.993500 
	C647.273682,409.798737 647.472046,409.575653 647.868042,409.231689 
	C647.892456,409.374390 647.743042,409.659180 647.346436,409.993500 
z"/>
<path fill="#183D71" opacity="1.000000" stroke="none" 
	d="
M630.571777,408.980469 
	C630.639282,409.164337 630.454956,409.368927 630.100098,409.696594 
	C629.889709,409.472198 630.019836,409.199341 630.571777,408.980469 
z"/>
<path fill="#183D71" opacity="1.000000" stroke="none" 
	d="
M648.342407,408.993744 
	C648.270630,408.798676 648.470520,408.576172 648.868896,408.233307 
	C648.892273,408.375854 648.741211,408.660339 648.342407,408.993744 
z"/>
<path fill="#183D71" opacity="1.000000" stroke="none" 
	d="
M631.553101,407.979492 
	C631.622925,408.160675 631.444885,408.363373 631.096558,408.684021 
	C630.890381,408.465179 631.016724,408.198181 631.553101,407.979492 
z"/>
<path fill="#183D71" opacity="1.000000" stroke="none" 
	d="
M649.343567,407.993835 
	C649.272278,407.799835 649.471924,407.576691 649.869934,407.232605 
	C649.893250,407.374756 649.742004,407.659119 649.343567,407.993835 
z"/>
<path fill="#183D71" opacity="1.000000" stroke="none" 
	d="
M632.529236,406.963257 
	C632.590942,407.137756 632.412964,407.332703 632.077637,407.651398 
	C631.871399,407.435944 631.994446,407.172119 632.529236,406.963257 
z"/>
<path fill="#183D71" opacity="1.000000" stroke="none" 
	d="
M650.342346,406.993713 
	C650.271240,406.799744 650.471497,406.575867 650.871460,406.231537 
	C650.894470,406.373718 650.742004,406.657959 650.342346,406.993713 
z"/>
<path fill="#183D71" opacity="1.000000" stroke="none" 
	d="
M681.216248,448.380737 
	C681.184387,447.448547 681.152527,446.516357 681.142090,445.108337 
	C683.179260,437.198181 683.130615,437.594604 691.550903,438.628143 
	C697.089478,439.307953 703.064331,440.487335 708.047607,436.092987 
	C708.825073,435.407410 710.189331,435.387177 711.661865,435.058167 
	C712.031006,445.152008 712.323975,455.259552 711.907043,465.337708 
	C711.612610,472.455139 706.466003,476.208191 699.498657,475.171844 
	C694.783875,474.470581 690.007629,473.875610 685.457336,472.551331 
	C683.976135,472.120239 682.399231,469.649567 682.122986,467.911957 
	C681.423645,463.512909 681.437195,459.000610 681.355408,453.802917 
	C681.435852,451.508392 681.326050,449.944550 681.216248,448.380737 
z"/>
<path fill="#183D71" opacity="1.000000" stroke="none" 
	d="
M713.990662,413.540710 
	C713.967163,414.009857 713.487305,414.005219 713.247437,414.006012 
	C713.007629,398.309967 713.007629,382.613159 713.007629,366.916321 
	C713.343140,366.916626 713.678650,366.916962 714.014160,366.917297 
	C714.014160,382.302063 714.014160,397.686798 713.990662,413.540710 
z"/>
<path fill="#359DCA" opacity="1.000000" stroke="none" 
	d="
M568.006592,431.246521 
	C568.008118,429.201416 568.008118,427.591736 568.008118,425.982056 
	C568.238892,425.987244 568.469604,425.992432 568.700378,425.997620 
	C568.700378,430.634491 568.700378,435.271393 568.700378,439.908295 
	C568.468628,439.924805 568.236816,439.941315 568.005066,439.957825 
	C568.005066,437.199188 568.005066,434.440582 568.006592,431.246521 
z"/>
<path fill="#14518C" opacity="1.000000" stroke="none" 
	d="
M681.203491,448.749207 
	C681.326050,449.944550 681.435852,451.508392 681.393311,453.321228 
	C681.224304,452.086060 681.207520,450.601868 681.203491,448.749207 
z"/>
<path fill="#2170B5" opacity="1.000000" stroke="none" 
	d="
M673.837524,463.205780 
	C673.898254,463.123657 673.891785,463.483978 673.886230,463.662140 
	C673.727783,463.673981 673.693176,463.489838 673.837524,463.205780 
z"/>
<path fill="#14518C" opacity="1.000000" stroke="none" 
	d="
M637.216370,451.832825 
	C637.180115,451.717072 637.335693,451.457642 637.678406,451.051025 
	C637.726196,451.172638 637.573730,451.434418 637.216370,451.832825 
z"/>
</svg>